<?xml version="1.0" encoding="UTF-8"?>
<!DOCTYPE svg PUBLIC "-//W3C//DTD SVG 1.1//EN" "http://www.w3.org/Graphics/SVG/1.1/DTD/svg11.dtd">
<!-- Creator: CorelDRAW 2020 (64 Bit) -->
<svg xmlns="http://www.w3.org/2000/svg" xml:space="preserve" width="113.787mm" height="23.1069mm" version="1.1" style="shape-rendering:geometricPrecision; text-rendering:geometricPrecision; image-rendering:optimizeQuality; fill-rule:evenodd; clip-rule:evenodd"
viewBox="0 0 11069.34 2247.88"
 xmlns:xlink="http://www.w3.org/1999/xlink"
 xmlns:xodm="http://www.corel.com/coreldraw/odm/2003">
 <defs>
  <style type="text/css">
   <![CDATA[
    .fil0 {fill:#4B4B4D}
    .fil2 {fill:#15591F}
    .fil3 {fill:#15591F}
    .fil1 {fill:#42994C}
    .fil4 {fill:#858585}
   ]]>
  </style>
 </defs>
 <g id="Camada_x0020_1">
  <metadata id="CorelCorpID_0Corel-Layer"/>
  <path class="fil0" d="M-0 1003.97c0,369.95 342.87,720.79 669.31,720.79 733.25,0 617.83,-309.53 617.83,-772.28 -197.88,-46.1 -380.73,-25.74 -617.83,-25.74l0 257.43 308.92 0c0,148.93 -26.14,283.17 -231.69,283.17 -414.28,0 -592.7,-524.88 -302.5,-791.61 292.15,-268.5 545.25,18.02 585.66,45.08l205.95 -180.2c-293.92,-438.92 -1235.65,-248.98 -1235.65,463.37z"/>
  <path class="fil0" d="M7310.92 1312.87l-308.91 -695.05 -334.66 0c27.8,119.33 540.59,1012.94 540.59,1029.7 0,41.49 -61.02,308.92 -180.19,308.92 -69.53,0 -70.98,-12.3 -128.71,-25.75 -38.02,79.23 -61.08,152.52 -102.97,231.69 594.06,314.34 658.15,-329.49 722.42,-461.58l410.26 -1108.71 -308.92 0 -308.91 720.79z"/>
  <path class="fil1" d="M8745.29 477.84c75.01,-65.2 308.16,-225.42 444.85,-194.67 -41.65,56.84 -353.69,187.08 -444.85,194.67zm-481.89 1066.72c-96.33,-226.56 -281.86,-471.59 104.66,-833.34 166.4,-149.97 721.15,-30.32 1230.27,-431.75l235.38 -125.01c-256.16,-59.68 -521.88,-154.46 -746.54,-154.46 -416.88,0 -782.17,263.73 -948.26,519.08 -308.8,474.74 -43.07,980.74 124.49,1025.48z"/>
  <path class="fil0" d="M4762.8 801.24l-0.41 -131.93 -283.17 0 0 1029.71 283.17 0.4 0 -695.45c338.5,-226.68 414.47,-90.32 411.95,360.33l-3.02 334.74 260.37 -0.02c0,-511.57 108.08,-1055.45 -360.39,-1055.45 -104.3,0 -269.6,50.16 -308.51,157.67z"/>
  <path class="fil0" d="M2934.67 1055.45l-463.37 0c77.44,-332.35 444.56,-226.15 463.37,0zm-746.54 102.97c0,627.08 748.52,664.97 952.48,360.39l-139.44 -122.57c9,7.91 -133.81,96.83 -220.96,96.83 -178.58,0 -275.21,-86.99 -308.92,-231.68l720.8 -25.75c0,-842.82 -1003.97,-718.91 -1003.97,-77.22z"/>
  <path class="fil0" d="M5787.71 1574.69c244.9,221.36 672.61,176.41 828.16,-55.88 -178.68,-243.87 -241.21,-51.48 -437.63,-51.48 -334.61,0 -379.09,-713.74 231.69,-489.1l154.45 -180.2c-216.02,-144.65 -481.43,-242.29 -765.23,-44.43 -257.13,216.66 -254.39,601.49 -11.44,821.1z"/>
  <polygon class="fil0" points="9756.47,386.14 9756.06,1699.01 10013.9,1699.01 10013.9,257.43 "/>
  <path class="fil0" d="M1724.76 798.02c-3.29,-147.26 5.58,-128.71 -231.69,-128.71l0 1029.71 257.43 0c0,-587.75 -93.8,-772.28 360.4,-772.28l0 -283.17c-117.53,0 -210.67,10 -292.99,93.16 -51.93,52.44 -25.39,61.3 -93.15,61.3z"/>
  <path class="fil2" d="M9344.59 1338.61c-1319.35,567.78 -818.47,-558.96 -411.88,-540.59 -452.11,-105.34 -762.68,192.15 -631.51,631.35 153.72,514.48 907.38,493.02 1043.39,-90.75z"/>
  <path class="fil3" d="M8829.74 1235.64c271.81,0 586.07,-218.79 592.08,-489.1 -289.88,67.53 -592.08,146.61 -592.08,489.1z"/>
  <line class="fil4" x1="8366.36" y1="1596.04" x2="8366.36" y2= "1596.04" />
  <path class="fil0" d="M4067.33 1055.45l-463.37 0c77.44,-332.35 444.56,-226.15 463.37,0zm-746.54 102.97c0,627.08 748.52,664.97 952.48,360.39l-139.44 -122.57c9,7.91 -133.81,96.83 -220.96,96.83 -178.58,0 -275.21,-86.99 -308.92,-231.68l720.8 -25.75c0,-842.82 -1003.97,-718.91 -1003.97,-77.22z"/>
  <path class="fil0" d="M10811.92 1055.45l-463.37 0c77.44,-332.35 444.56,-226.15 463.37,0zm-746.54 102.97c0,627.08 748.52,664.97 952.48,360.39l-139.44 -122.57c9,7.91 -133.81,96.83 -220.96,96.83 -178.58,0 -275.21,-86.99 -308.92,-231.68l720.8 -25.75c0,-842.82 -1003.97,-718.91 -1003.97,-77.22z"/>
 </g>
</svg>
