<?xml version="1.0" encoding="UTF-8"?>
<!DOCTYPE svg PUBLIC "-//W3C//DTD SVG 1.1//EN" "http://www.w3.org/Graphics/SVG/1.1/DTD/svg11.dtd">
<!-- Creator: CorelDRAW 2020 (64 Bit) -->
<svg xmlns="http://www.w3.org/2000/svg" xml:space="preserve" width="18.8834mm" height="18.4713mm" version="1.1" style="shape-rendering:geometricPrecision; text-rendering:geometricPrecision; image-rendering:optimizeQuality; fill-rule:evenodd; clip-rule:evenodd"
viewBox="0 0 751.7 735.3"
 xmlns:xlink="http://www.w3.org/1999/xlink"
 xmlns:xodm="http://www.corel.com/coreldraw/odm/2003">
 <defs>
  <style type="text/css">
   <![CDATA[
    .fil1 {fill:#15591F}
    .fil2 {fill:#15591F}
    .fil0 {fill:#42994C}
    .fil3 {fill:#858585}
   ]]>
  </style>
 </defs>
 <g id="Camada_x0020_1">
  <metadata id="CorelCorpID_0Corel-Layer"/>
  <path class="fil0" d="M306.32 195.53c30.7,-26.68 126.1,-92.24 182.03,-79.66 -17.04,23.26 -144.73,76.55 -182.03,79.66zm-197.19 436.5c-39.42,-92.71 -115.34,-192.97 42.82,-341 68.09,-61.37 295.09,-12.41 503.43,-176.67l96.32 -51.15c-104.82,-24.42 -213.55,-63.21 -305.48,-63.21 -170.59,0 -320.06,107.92 -388.03,212.4 -126.36,194.26 -17.62,401.32 50.94,419.63z"/>
  <path class="fil1" d="M551.56 547.76c-539.88,232.34 -334.92,-228.73 -168.54,-221.21 -185,-43.1 -312.09,78.63 -258.41,258.35 62.9,210.53 371.3,201.74 426.96,-37.14z"/>
  <path class="fil2" d="M340.88 505.62c111.23,0 239.82,-89.53 242.28,-200.14 -118.62,27.63 -242.28,59.99 -242.28,200.14z"/>
  <line class="fil3" x1="151.27" y1="653.1" x2="151.27" y2= "653.1" />
 </g>
</svg>
