<?xml version="1.0" encoding="UTF-8"?>
<!DOCTYPE svg PUBLIC "-//W3C//DTD SVG 1.1//EN" "http://www.w3.org/Graphics/SVG/1.1/DTD/svg11.dtd">
<!-- Creator: CorelDRAW 2020 (64 Bit) -->
<svg xmlns="http://www.w3.org/2000/svg" xml:space="preserve" width="113.786mm" height="23.1068mm" version="1.1" style="shape-rendering:geometricPrecision; text-rendering:geometricPrecision; image-rendering:optimizeQuality; fill-rule:evenodd; clip-rule:evenodd"
viewBox="0 0 107.92 21.92"
 xmlns:xlink="http://www.w3.org/1999/xlink"
 xmlns:xodm="http://www.corel.com/coreldraw/odm/2003">
 <defs>
  <style type="text/css">
   <![CDATA[
    .fil1 {fill:none}
    .fil0 {fill:#FEFEFE}
   ]]>
  </style>
 </defs>
 <g id="Camada_x0020_1">
  <metadata id="CorelCorpID_0Corel-Layer"/>
  <g id="_2084203641808">
   <path class="fil0" d="M0 9.79c0,3.61 3.34,7.03 6.53,7.03 7.15,0 6.02,-3.02 6.02,-7.53 -1.93,-0.45 -3.71,-0.25 -6.02,-0.25l0 2.51 3.01 0c0,1.45 -0.25,2.76 -2.26,2.76 -4.04,0 -5.78,-5.12 -2.95,-7.72 2.85,-2.62 5.32,0.18 5.71,0.44l2.01 -1.76c-2.87,-4.28 -12.05,-2.43 -12.05,4.52l0 0z"/>
   <path class="fil0" d="M71.28 12.8l-3.01 -6.78 -3.26 0c0.27,1.16 5.27,9.88 5.27,10.04 0,0.4 -0.59,3.01 -1.76,3.01 -0.68,0 -0.69,-0.12 -1.25,-0.25 -0.37,0.77 -0.6,1.49 -1,2.26 5.79,3.06 6.42,-3.21 7.04,-4.5l4 -10.81 -3.01 0 -3.01 7.03 -0 0z"/>
   <path class="fil0" d="M85.26 4.66c0.73,-0.64 3,-2.2 4.34,-1.9 -0.41,0.55 -3.45,1.82 -4.34,1.9zm-4.7 10.4c-0.94,-2.21 -2.75,-4.6 1.02,-8.12 1.62,-1.46 7.03,-0.3 11.99,-4.21l2.29 -1.22c-2.5,-0.58 -5.09,-1.51 -7.28,-1.51 -4.06,0 -7.63,2.57 -9.25,5.06 -3.01,4.63 -0.42,9.56 1.21,10l0 0z"/>
   <path class="fil0" d="M46.44 7.81l-0 -1.29 -2.76 0 0 10.04 2.76 0 0 -6.78c3.3,-2.21 4.04,-0.88 4.02,3.51l-0.03 3.26 2.54 -0c0,-4.99 1.05,-10.29 -3.51,-10.29 -1.02,0 -2.63,0.49 -3.01,1.54z"/>
   <path class="fil0" d="M28.61 10.29l-4.52 0c0.75,-3.24 4.33,-2.2 4.52,0zm-7.28 1c0,6.11 7.3,6.48 9.29,3.51l-1.36 -1.19c0.09,0.08 -1.3,0.94 -2.15,0.94 -1.74,0 -2.68,-0.85 -3.01,-2.26l7.03 -0.25c0,-8.22 -9.79,-7.01 -9.79,-0.75l0 -0z"/>
   <path class="fil0" d="M56.43 15.35c2.39,2.16 6.56,1.72 8.07,-0.54 -1.74,-2.38 -2.35,-0.5 -4.27,-0.5 -3.26,0 -3.7,-6.96 2.26,-4.77l1.51 -1.76c-2.11,-1.41 -4.69,-2.36 -7.46,-0.43 -2.51,2.11 -2.48,5.86 -0.11,8.01z"/>
   <polygon class="fil0" points="95.12,3.76 95.12,16.56 97.63,16.56 97.63,2.51 "/>
   <path class="fil0" d="M16.82 7.78c-0.03,-1.44 0.05,-1.25 -2.26,-1.25l0 10.04 2.51 0c0,-5.73 -0.91,-7.53 3.51,-7.53l0 -2.76c-1.15,0 -2.05,0.1 -2.86,0.91 -0.51,0.51 -0.25,0.6 -0.91,0.6z"/>
   <path class="fil0" d="M91.11 13.05c-12.86,5.54 -7.98,-5.45 -4.02,-5.27 -4.41,-1.03 -7.44,1.87 -6.16,6.16 1.5,5.02 8.85,4.81 10.17,-0.88l0 0z"/>
   <path class="fil0" d="M86.09 12.05c2.65,0 5.71,-2.13 5.77,-4.77 -2.83,0.66 -5.77,1.43 -5.77,4.77z"/>
   <line class="fil1" x1="81.57" y1="15.56" x2="81.57" y2= "15.56" />
   <path class="fil0" d="M39.66 10.29l-4.52 0c0.75,-3.24 4.33,-2.2 4.52,0zm-7.28 1c0,6.11 7.3,6.48 9.29,3.51l-1.36 -1.19c0.09,0.08 -1.3,0.94 -2.15,0.94 -1.74,0 -2.68,-0.85 -3.01,-2.26l7.03 -0.25c0,-8.22 -9.79,-7.01 -9.79,-0.75l0 -0z"/>
   <path class="fil0" d="M105.41 10.29l-4.52 0c0.75,-3.24 4.33,-2.2 4.52,0zm-7.28 1c0,6.11 7.3,6.48 9.29,3.51l-1.36 -1.19c0.09,0.08 -1.3,0.94 -2.15,0.94 -1.74,0 -2.68,-0.85 -3.01,-2.26l7.03 -0.25c0,-8.22 -9.79,-7.01 -9.79,-0.75l0 -0z"/>
  </g>
 </g>
</svg>
